<svg width="20" height="20" viewBox="0 0 20 20" fill="none" xmlns="http://www.w3.org/2000/svg">
<rect width="20" height="20" rx="5" fill="#FF8A00"/>
<path d="M10.2071 3.29289C9.81658 2.90237 9.18342 2.90237 8.79289 3.29289L2.14645 9.93934C1.95118 10.1346 1.95118 10.4512 2.14645 10.6464C2.34171 10.8417 2.65829 10.8417 2.85355 10.6464L9.5 4L16.1464 10.6464C16.3417 10.8417 16.6583 10.8417 16.8536 10.6464C17.0488 10.4512 17.0488 10.1346 16.8536 9.93934L14.5 7.58579V4.29289C14.5 4.01675 14.2761 3.79289 14 3.79289H13C12.7239 3.79289 12.5 4.01675 12.5 4.29289V5.58579L10.2071 3.29289Z" fill="white"/>
<path d="M9.5 5.08578L14.212 9.7978C14.1418 9.79454 14.0711 9.79289 14 9.79289C11.5147 9.79289 9.5 11.8076 9.5 14.2929C9.5 15.218 9.77914 16.0778 10.2578 16.7929H5C4.17157 16.7929 3.5 16.1213 3.5 15.2929V11.0858L9.5 5.08578Z" fill="white"/>
</svg>
